<svg id="no_x5F_photos" enable-background="new 0 0 300 300" height="512" viewBox="0 0 300 300" width="512" xmlns="http://www.w3.org/2000/svg"><circle cx="122" cy="133.006" fill="#edebdc" r="92"/><path d="m201.808 121.427-4.821-16.454c-2.078-7.093-8.585-11.967-15.976-11.967h-51.705c-7.391 0-13.898 4.873-15.976 11.967l-4.821 16.454h-42.733c-8.713 0-15.776 7.063-15.776 15.776v87.815c0 8.713 7.063 15.776 15.776 15.776h184.447c8.713 0 15.776-7.063 15.776-15.776v-87.815c0-8.713-7.063-15.776-15.776-15.776z" fill="#e5efef"/><path d="m250.223 244.795h-184.446c-10.906 0-19.777-8.871-19.777-19.775v-87.816c0-10.904 8.871-19.775 19.777-19.775h39.734l3.977-13.58c2.562-8.738 10.711-14.842 19.816-14.842h51.707c9.105 0 17.254 6.104 19.816 14.842l3.977 13.58h45.418c10.906 0 19.777 8.871 19.777 19.775v87.816c.001 10.904-8.87 19.775-19.776 19.775zm-184.446-119.367c-6.492 0-11.777 5.283-11.777 11.775v87.816c0 6.492 5.285 11.775 11.777 11.775h184.445c6.492 0 11.777-5.283 11.777-11.775v-87.816c0-6.492-5.285-11.775-11.777-11.775h-48.414c-1.777 0-3.34-1.172-3.84-2.875l-4.82-16.455c-1.566-5.354-6.559-9.092-12.137-9.092h-51.707c-5.578 0-10.57 3.738-12.137 9.092l-4.82 16.455c-.5 1.703-2.062 2.875-3.84 2.875z" fill="#4c241d"/><circle cx="155.158" cy="175.427" fill="#9dc1e4" r="40.181"/><path d="m155.156 219.608c-24.359 0-44.18-19.818-44.18-44.18s19.82-44.182 44.18-44.182c24.363 0 44.184 19.82 44.184 44.182s-19.82 44.18-44.184 44.18zm0-80.362c-19.949 0-36.18 16.23-36.18 36.182 0 19.949 16.23 36.18 36.18 36.18 19.953 0 36.184-16.23 36.184-36.18 0-19.951-16.231-36.182-36.184-36.182z" fill="#4c241d"/><circle cx="155.158" cy="175.427" fill="#fff" r="20.611"/><path d="m155.156 200.039c-13.57 0-24.609-11.041-24.609-24.611s11.039-24.611 24.609-24.611 24.613 11.041 24.613 24.611-11.042 24.611-24.613 24.611zm0-41.222c-9.16 0-16.609 7.451-16.609 16.611s7.449 16.611 16.609 16.611 16.613-7.451 16.613-16.611-7.453-16.611-16.613-16.611z" fill="#4c241d"/><path d="m222 137.006h20v12h-20z" fill="#fff"/><path d="m242 153.006h-20c-2.211 0-4-1.791-4-4v-12c0-2.209 1.789-4 4-4h20c2.211 0 4 1.791 4 4v12c0 2.209-1.789 4-4 4zm-16-8h12v-4h-12z" fill="#4c241d"/><path d="m82 221.006c-6.627 0-12-5.373-12-12v-56c0-6.627 5.373-12 12-12 6.627 0 12 5.373 12 12v56c0 6.628-5.373 12-12 12z" fill="#fc8c29"/><g fill="#4c241d"><path d="m82 225.006c-8.824 0-16-7.178-16-16v-56c0-8.822 7.176-16 16-16s16 7.178 16 16v56c0 8.822-7.176 16-16 16zm0-80c-4.41 0-8 3.588-8 8v56c0 4.412 3.59 8 8 8s8-3.588 8-8v-56c0-4.412-3.59-8-8-8z"/><path d="m200 61.006c-7.719 0-14-6.281-14-14s6.281-14 14-14 14 6.281 14 14-6.281 14-14 14zm0-20c-3.309 0-6 2.691-6 6s2.691 6 6 6 6-2.691 6-6-2.691-6-6-6z"/><path d="m84 105.006c-7.719 0-14-6.281-14-14s6.281-14 14-14 14 6.281 14 14-6.281 14-14 14zm0-20c-3.309 0-6 2.691-6 6s2.691 6 6 6 6-2.691 6-6-2.691-6-6-6z"/><circle cx="264" cy="103.006" r="4.529"/><circle cx="124" cy="35.006" r="4.529"/><path d="m42.652 58.354c-1.023 0-2.047-.391-2.828-1.172-1.562-1.562-1.562-4.094 0-5.656l14.696-14.696c1.562-1.562 4.094-1.562 5.656 0s1.562 4.094 0 5.656l-14.696 14.696c-.781.781-1.804 1.172-2.828 1.172z"/><path d="m57.348 58.354c-1.023 0-2.047-.391-2.828-1.172l-14.696-14.695c-1.562-1.562-1.562-4.094 0-5.656s4.094-1.562 5.656 0l14.695 14.695c1.562 1.562 1.562 4.094 0 5.656-.78.781-1.804 1.172-2.827 1.172z"/></g><path d="m94.809 258.301c-.898 0-1.801-.301-2.547-.918-1.703-1.408-1.938-3.93-.531-5.633l126.476-152.824c1.41-1.697 3.93-1.939 5.633-.531s1.938 3.93.531 5.633l-126.476 152.824c-.793.955-1.934 1.449-3.086 1.449z" fill="#fff"/><path d="m76.508 269.524c-.887 0-1.785-.295-2.527-.902-1.711-1.396-1.965-3.916-.566-5.627l162.651-199.2c1.391-1.711 3.906-1.971 5.629-.568 1.711 1.396 1.965 3.916.566 5.627l-162.652 199.199c-.789.969-1.941 1.471-3.101 1.471z" fill="#4c241d"/></svg>